<?xml version="1.0" encoding="utf-8"?>
<svg width="114px" height="114px" viewBox="0 0 114 114" version="1.1" xmlns:xlink="http://www.w3.org/1999/xlink" xmlns="http://www.w3.org/2000/svg">
  <defs>
    <linearGradient gradientUnits="objectBoundingBox" x1="26.648937" y1="20.60378" x2="135.66525" y2="114.39767" id="gradient_1">
      <stop offset="0%" stop-color="#5A9FD4" />
      <stop offset="100%" stop-color="#306998" />
    </linearGradient>
    <linearGradient gradientUnits="objectBoundingBox" x1="150.9611" y1="192.35176" x2="112.03144" y2="137.273" id="gradient_2">
      <stop offset="0%" stop-color="#FFD43B" />
      <stop offset="100%" stop-color="#FFE873" />
    </linearGradient>
    <path d="M114 0L114 0L114 114L0 114L0 0L114 0Z" id="path_1" />
    <clipPath id="clip_1">
      <use xlink:href="#path_1" clip-rule="evenodd" fill-rule="evenodd" />
    </clipPath>
  </defs>
  <g id="python-logo" clip-path="url(#clip_1)">
    <path d="M114 0L114 0L114 114L0 114L0 0L114 0Z" id="python-logo" fill="none" stroke="none" />
    <path d="M56.2188 0.500919C51.6351 0.522217 47.2578 0.913137 43.4063 1.59467C32.0601 3.59917 30 7.79477 30 15.5322L30 25.7509L56.8125 25.7509L56.8125 29.1572L30 29.1572L19.9375 29.1572C12.1451 29.1572 5.32178 33.8409 3.18754 42.7509C0.725715 52.9639 0.61652 59.3369 3.18754 70.0009C5.09346 77.9388 9.64508 83.5947 17.4375 83.5947L26.6563 83.5947L26.6563 71.3447C26.6563 62.4948 34.3134 54.6884 43.4063 54.6884L70.1875 54.6884C77.6425 54.6884 83.5938 48.5502 83.5938 41.0634L83.5938 15.5322C83.5938 8.26583 77.4638 2.80739 70.1875 1.59467C65.5816 0.827944 60.8024 0.479621 56.2188 0.500919L56.2188 0.500919ZM41.7188 8.71967C44.4883 8.71967 46.75 11.0183 46.75 13.8447C46.75 16.661 44.4883 18.9384 41.7188 18.9384C38.9393 18.9384 36.6875 16.661 36.6875 13.8447C36.6875 11.0183 38.9393 8.71967 41.7188 8.71967L41.7188 8.71967Z" id="path1948" fill="url(#gradient_1)" fill-rule="evenodd" stroke="none" />
    <path d="M86.9375 29.16L86.9375 41.0663C86.9375 50.297 79.1116 58.0662 70.1875 58.0663L43.4063 58.0663C36.0704 58.0663 30 64.3447 30 71.6912L30 97.2225C30 104.489 36.3186 108.763 43.4063 110.847C51.8936 113.343 60.0325 113.794 70.1875 110.847C76.9377 108.893 83.5938 104.96 83.5938 97.2225L83.5938 87.0038L56.8125 87.0038L56.8125 83.5975L83.5938 83.5975L97 83.5975C104.792 83.5975 107.696 78.1621 110.406 70.0037C113.206 61.6049 113.086 53.528 110.406 42.7537C108.48 34.9963 104.802 29.16 97 29.16L86.9375 29.16ZM71.875 93.8163C74.6545 93.8163 76.9063 96.0937 76.9063 98.91C76.9063 101.736 74.6545 104.035 71.875 104.035C69.1055 104.035 66.8438 101.736 66.8438 98.91C66.8438 96.0937 69.1054 93.8163 71.875 93.8163L71.875 93.8163Z" id="path1950" fill="url(#gradient_2)" fill-rule="evenodd" stroke="none" />
  </g>
</svg>