<?xml version="1.0" encoding="utf-8"?>
<svg width="444px" height="119px" viewBox="0 0 444 119" version="1.1" xmlns:xlink="http://www.w3.org/1999/xlink" xmlns="http://www.w3.org/2000/svg">
  <defs>
    <linearGradient gradientUnits="objectBoundingBox" x1="26.648937" y1="20.60378" x2="135.66525" y2="114.39767" id="gradient_1">
      <stop offset="0%" stop-color="#5A9FD4" />
      <stop offset="100%" stop-color="#306998" />
    </linearGradient>
    <linearGradient gradientUnits="objectBoundingBox" x1="150.9611" y1="192.35176" x2="112.03144" y2="137.273" id="gradient_2">
      <stop offset="0%" stop-color="#FFD43B" />
      <stop offset="100%" stop-color="#FFE873" />
    </linearGradient>
    <path d="M444 0L444 0L444 119L0 119L0 0L444 0Z" id="path_1" />
    <clipPath id="clip_1">
      <use xlink:href="#path_1" clip-rule="evenodd" fill-rule="evenodd" />
    </clipPath>
  </defs>
  <g id="python-logotype" clip-path="url(#clip_1)">
    <path d="M444 0L444 0L444 119L0 119L0 0L444 0Z" id="python-logotype" fill="none" stroke="none" />
    <g id="g2303" transform="translate(1.5913706 1.2616329)">
      <path d="M179.022 58.6677C179.022 44.1056 174.87 36.6296 166.565 36.2202C163.261 36.0642 160.035 36.5906 156.896 37.809C154.391 38.7057 152.705 39.5927 151.818 40.4894L151.818 75.2475C157.13 78.581 161.848 80.1308 165.961 79.8871C174.665 79.3121 179.022 72.2454 179.022 58.6677L179.022 58.6677ZM189.266 59.272C189.266 66.6701 187.531 72.8108 184.042 77.694C180.153 83.2206 174.763 86.0668 167.871 86.2228C162.676 86.3885 157.325 84.7607 151.818 81.3492L151.818 112.94L142.909 109.762L142.909 39.6414C144.371 37.8479 146.252 36.3079 148.533 35.0018C153.836 31.912 160.278 30.3232 167.862 30.2452L167.988 30.3719C174.919 30.2842 180.26 33.1304 184.013 38.9006C187.512 44.1933 189.266 50.9773 189.266 59.272L189.266 59.272Z" id="path46" fill="#646464" fill-rule="evenodd" stroke="none" />
      <path d="M243.714 80.0041C243.714 89.9267 242.719 96.7983 240.731 100.619C238.733 104.44 234.931 107.491 229.317 109.762C224.765 111.555 219.843 112.53 214.56 112.696L213.088 107.082C218.459 106.35 222.241 105.619 224.434 104.888C228.752 103.426 231.715 101.185 233.343 98.1824C234.649 95.7359 235.292 91.0671 235.292 84.1564L235.292 81.8366C229.2 84.6047 222.816 85.9791 216.139 85.9791C211.753 85.9791 207.883 84.6047 204.55 81.8366C200.807 78.8247 198.935 75.0038 198.935 70.374L198.935 33.2961L207.844 30.2452L207.844 67.5668C207.844 71.5534 209.131 74.6237 211.704 76.7778C214.277 78.9319 217.611 79.9651 221.695 79.8872C225.779 79.7994 230.155 78.2204 234.805 75.1306L234.805 31.5903L243.714 31.5903L243.714 80.0041L243.714 80.0041Z" id="path48" fill="#646464" stroke="none" />
      <path d="M278.491 85.7354C277.429 85.8231 276.454 85.8621 275.557 85.8621C270.518 85.8621 266.59 84.6632 263.783 82.2557C260.985 79.8482 259.582 76.5244 259.582 72.2844L259.582 37.1949L253.48 37.1949L253.48 31.5903L259.582 31.5903L259.582 16.7065L268.481 13.5387L268.481 31.5903L278.491 31.5903L278.491 37.1949L268.481 37.1949L268.481 72.0407C268.481 75.384 269.378 77.7525 271.171 79.1366C272.711 80.277 275.158 80.9301 278.491 81.0958L278.491 85.7354L278.491 85.7354Z" id="path50" fill="#646464" stroke="none" />
      <path d="M332.432 85.0044L323.523 85.0044L323.523 50.6166C323.523 47.1174 322.704 44.1056 321.076 41.5908C319.195 38.7447 316.583 37.3216 313.23 37.3216C309.146 37.3216 304.038 39.4757 297.907 43.7839L297.907 85.0044L288.998 85.0044L288.998 2.80716L297.907 0L297.907 37.4386C303.6 33.2961 309.818 31.2199 316.573 31.2199C321.291 31.2199 325.111 32.8087 328.036 35.9765C330.969 39.1443 332.432 43.0919 332.432 47.8095L332.432 85.0044L332.432 85.0044L332.432 85.0044Z" id="path52" fill="#646464" stroke="none" />
      <path d="M379.783 57.2642C379.783 51.6693 378.72 47.0492 376.605 43.394C374.091 38.9396 370.182 36.5906 364.899 36.3469C355.132 36.9122 350.259 43.9106 350.259 57.3226C350.259 63.473 351.273 68.6098 353.32 72.7328C355.932 77.9865 359.85 80.5792 365.075 80.4915C374.88 80.4135 379.783 72.6743 379.783 57.2642L379.783 57.2642ZM389.54 57.3226C389.54 65.286 387.503 71.914 383.438 77.2067C378.964 83.1329 372.784 86.1058 364.899 86.1058C357.082 86.1058 350.99 83.1329 346.594 77.2067C342.607 71.914 340.619 65.286 340.619 57.3226C340.619 49.8369 342.773 43.5403 347.081 38.4133C351.633 32.9744 357.618 30.2452 365.016 30.2452C372.414 30.2452 378.438 32.9744 383.077 38.4133C387.386 43.5403 389.54 49.8369 389.54 57.3226L389.54 57.3226Z" id="path54" fill="#646464" fill-rule="evenodd" stroke="none" />
      <path d="M440.614 85.0044L431.706 85.0044L431.706 48.6672C431.706 44.6807 430.507 41.5713 428.109 39.3295C425.711 37.0974 422.514 36.0155 418.528 36.1032C414.297 36.1812 410.272 37.5653 406.451 40.2457L406.451 85.0044L397.542 85.0044L397.542 39.1443C402.669 35.4112 407.387 32.9744 411.695 31.834C415.759 30.7716 419.346 30.2452 422.436 30.2452C424.551 30.2452 426.54 30.4499 428.411 30.8593C431.91 31.6683 434.756 33.1693 436.95 35.3722C439.396 37.809 440.614 40.7331 440.614 44.1543L440.614 85.0044L440.614 85.0044Z" id="path56" fill="#646464" stroke="none" />
      <path d="M54.9188 3.13634C50.3351 3.15764 45.9578 3.54856 42.1063 4.23009C30.7601 6.23459 28.7 10.4302 28.7 18.1676L28.7 28.3863L55.5125 28.3863L55.5125 31.7926L28.7 31.7926L18.6375 31.7926C10.8451 31.7926 4.02178 36.4763 1.88754 45.3863C-0.574285 55.5993 -0.68348 61.9724 1.88754 72.6363C3.79346 80.5742 8.34508 86.2301 16.1375 86.2301L25.3563 86.2301L25.3563 73.9801C25.3563 65.1302 33.0134 57.3238 42.1063 57.3238L68.8875 57.3238C76.3425 57.3238 82.2938 51.1857 82.2938 43.6988L82.2938 18.1676C82.2938 10.9013 76.1638 5.44281 68.8875 4.23009C64.2815 3.46336 59.5024 3.11504 54.9188 3.13634L54.9188 3.13634ZM40.4188 11.3551C43.1883 11.3551 45.45 13.6537 45.45 16.4801C45.45 19.2964 43.1883 21.5738 40.4188 21.5738C37.6393 21.5738 35.3875 19.2964 35.3875 16.4801C35.3875 13.6537 37.6393 11.3551 40.4188 11.3551L40.4188 11.3551Z" id="path1948" fill="url(#gradient_1)" fill-rule="evenodd" stroke="none" />
      <path d="M85.6375 31.7926L85.6375 43.6988C85.6375 52.9296 77.8116 60.6988 68.8875 60.6988L42.1063 60.6988C34.7705 60.6988 28.7 66.9773 28.7 74.3238L28.7 99.8551C28.7 107.121 35.0186 111.395 42.1063 113.48C50.5936 115.976 58.7325 116.427 68.8875 113.48C75.6377 111.526 82.2938 107.592 82.2938 99.8551L82.2938 89.6363L55.5125 89.6363L55.5125 86.2301L82.2938 86.2301L95.7 86.2301C103.493 86.2301 106.396 80.7947 109.106 72.6363C111.906 64.2374 111.786 56.1606 109.106 45.3863C107.181 37.6289 103.502 31.7926 95.7 31.7926L85.6375 31.7926L85.6375 31.7926ZM70.575 96.4488C73.3545 96.4488 75.6063 98.7263 75.6063 101.543C75.6063 104.369 73.3545 106.668 70.575 106.668C67.8055 106.668 65.5438 104.369 65.5438 101.543C65.5438 98.7263 67.8055 96.4488 70.575 96.4488L70.575 96.4488Z" id="path1950" fill="url(#gradient_2)" fill-rule="evenodd" stroke="none" />
    </g>
  </g>
</svg>