<?xml version="1.0" encoding="utf-8"?>
<svg width="516px" height="300px" viewBox="0 0 516 300" version="1.1" xmlns:xlink="http://www.w3.org/1999/xlink" xmlns="http://www.w3.org/2000/svg">
  <defs>
    <path d="M516 0L516 0L516 300L0 300L0 0L516 0Z" id="path_1" />
    <path d="M498 101C503.524 101 508 105.476 508 111L508 201C508 206.524 503.524 211 498 211L18 211C12.4764 211 8 206.524 8 201L8 111C8 105.476 12.4764 101 18 101L498 101Z" id="path_2" />
    <path d="M0 0L91 0L91 88L0 88L0 0Z" id="path_3" />
    <path d="M0 0L68 0L68 66L0 66L0 0Z" id="path_4" />
    <clipPath id="clip_1">
      <use xlink:href="#path_1" clip-rule="evenodd" fill-rule="evenodd" />
    </clipPath>
    <clipPath id="clip_2">
      <use xlink:href="#path_2" />
    </clipPath>
    <clipPath id="clip_3">
      <use xlink:href="#path_3" />
    </clipPath>
    <clipPath id="clip_4">
      <use xlink:href="#path_4" clip-rule="evenodd" fill-rule="evenodd" transform="translate(0, -1.3199997)" />
    </clipPath>
  </defs>
  <g id="Frame" clip-path="url(#clip_1)">
    <path d="M516 0L516 0L516 300L0 300L0 0L516 0Z" id="Frame" fill="none" stroke="none" />
    <g id="Rectangle">
      <g clip-path="url(#clip_2)">
        <use xlink:href="#path_2" fill="none" stroke="#FF7E8A" stroke-width="8" stroke-linejoin="round" stroke-dasharray="5 5" />
      </g>
    </g>
    <g id="Group" transform="translate(19 112)">
      <g id="Rectangle">
        <use stroke="none" fill="#FFFFFF" fill-opacity="0.06666667" xlink:href="#path_3" fill-rule="evenodd" />
        <g clip-path="url(#clip_3)">
          <use xlink:href="#path_3" fill="none" stroke="#FFFFFF" stroke-opacity="0.6" stroke-width="6" />
        </g>
      </g>
      <g id="J" clip-path="url(#clip_4)" transform="translate(11.5 12.32)">
        <g transform="translate(19.599998, 0)" id="J" fill="#FFFFFF">
          <path d="M12.96 49.44Q7.92 49.44 5.04 46.608Q2.16 43.776 2.16 38.88L6.48 38.88Q6.48 42.096 8.184 43.848Q9.888 45.6 12.96 45.6Q16.032 45.6 17.736 43.848Q19.44 42.096 19.44 38.88L19.44 17.856L9.6 17.856L9.6 13.92L23.76 13.92L23.76 38.88Q23.76 43.776 20.856 46.608Q17.952 49.44 12.96 49.44Z" />
        </g>
      </g>
    </g>
    <g id="Group-2" transform="translate(116 112)">
      <g id="Rectangle">
        <use stroke="none" fill="#FFFFFF" fill-opacity="0.06666667" xlink:href="#path_3" fill-rule="evenodd" />
        <g clip-path="url(#clip_3)">
          <use xlink:href="#path_3" fill="none" stroke="#FFFFFF" stroke-width="6" />
        </g>
      </g>
      <g id="i" clip-path="url(#clip_4)" transform="translate(11.5 12.32)">
        <g transform="translate(19.599998, 0)" id="i" fill="#FFFFFF">
          <path d="M4.08 48.96L4.08 45.024L13.44 45.024L13.44 26.496L5.04 26.496L5.04 22.56L17.76 22.56L17.76 45.024L26.64 45.024L26.64 48.96L4.08 48.96ZM15.12 17.808Q13.536 17.808 12.624 16.992Q11.712 16.176 11.712 14.784Q11.712 13.344 12.624 12.504Q13.536 11.664 15.12 11.664Q16.704 11.664 17.616 12.504Q18.528 13.344 18.528 14.784Q18.528 16.176 17.616 16.992Q16.704 17.808 15.12 17.808Z" />
        </g>
      </g>
    </g>
    <g id="Group-3" transform="translate(213 112)">
      <g id="Rectangle">
        <use stroke="none" fill="#FFFFFF" fill-opacity="0.06666667" xlink:href="#path_3" fill-rule="evenodd" />
        <g clip-path="url(#clip_3)">
          <use xlink:href="#path_3" fill="none" stroke="#FFFFFF" stroke-opacity="0.6" stroke-width="6" />
        </g>
      </g>
      <g id="m" clip-path="url(#clip_4)" transform="translate(11.5 12.32)">
        <g transform="translate(19.599998, 0)" id="m" fill="#FFFFFF">
          <path d="M2.88 48.96L2.88 22.56L6.672 22.56L6.672 25.728L6.96 25.728Q7.296 24.096 8.472 23.088Q9.648 22.08 11.376 22.08Q12.96 22.08 14.112 23.064Q15.264 24.048 15.744 25.728L16.032 25.728Q16.368 24.096 17.568 23.088Q18.768 22.08 20.544 22.08Q22.944 22.08 24.432 23.976Q25.92 25.872 25.92 28.896L25.92 48.96L21.936 48.96L21.936 28.848Q21.936 27.168 21.192 26.28Q20.448 25.392 19.056 25.392Q17.664 25.392 16.896 26.28Q16.128 27.168 16.128 28.8L16.128 48.96L12.672 48.96L12.672 28.848Q12.672 27.168 11.88 26.28Q11.088 25.392 9.696 25.392Q8.352 25.392 7.608 26.28Q6.864 27.168 6.864 28.8L6.864 48.96L2.88 48.96Z" />
        </g>
      </g>
    </g>
    <g id="Group-4" transform="translate(310 112)">
      <g id="Rectangle">
        <use stroke="none" fill="#FFFFFF" fill-opacity="0.06666667" xlink:href="#path_3" fill-rule="evenodd" />
        <g clip-path="url(#clip_3)">
          <use xlink:href="#path_3" fill="none" stroke="#FFFFFF" stroke-opacity="0.6" stroke-width="6" />
        </g>
      </g>
      <g id="m" clip-path="url(#clip_4)" transform="translate(11.5 12.32)">
        <g transform="translate(19.599998, 0)" id="m" fill="#FFFFFF">
          <path d="M2.88 48.96L2.88 22.56L6.672 22.56L6.672 25.728L6.96 25.728Q7.296 24.096 8.472 23.088Q9.648 22.08 11.376 22.08Q12.96 22.08 14.112 23.064Q15.264 24.048 15.744 25.728L16.032 25.728Q16.368 24.096 17.568 23.088Q18.768 22.08 20.544 22.08Q22.944 22.08 24.432 23.976Q25.92 25.872 25.92 28.896L25.92 48.96L21.936 48.96L21.936 28.848Q21.936 27.168 21.192 26.28Q20.448 25.392 19.056 25.392Q17.664 25.392 16.896 26.28Q16.128 27.168 16.128 28.8L16.128 48.96L12.672 48.96L12.672 28.848Q12.672 27.168 11.88 26.28Q11.088 25.392 9.696 25.392Q8.352 25.392 7.608 26.28Q6.864 27.168 6.864 28.8L6.864 48.96L2.88 48.96Z" />
        </g>
      </g>
    </g>
    <g id="Group-5" transform="translate(407 112)">
      <g id="Rectangle">
        <use stroke="none" fill="#FFFFFF" fill-opacity="0.06666667" xlink:href="#path_3" fill-rule="evenodd" />
        <g clip-path="url(#clip_3)">
          <use xlink:href="#path_3" fill="none" stroke="#FFFFFF" stroke-opacity="0.6" stroke-width="6" />
        </g>
      </g>
      <g id="y" clip-path="url(#clip_4)" transform="translate(11.5 12.32)">
        <g transform="translate(19.599998, 0)" id="y" fill="#FFFFFF">
          <path d="M8.592 57.6L12.48 47.328L2.4 22.56L7.104 22.56L13.536 38.88Q13.872 39.696 14.184 40.824Q14.496 41.952 14.688 42.72Q14.88 41.952 15.216 40.824Q15.552 39.696 15.888 38.88L21.888 22.56L26.4 22.56L13.104 57.6L8.592 57.6Z" />
        </g>
      </g>
    </g>
    <g id="String" transform="translate(174 -5)">
      <g id="String" fill="#FF7E8A">
        <path d="M29.1477 25.3977Q28.7642 22.1591 26.0369 20.3693Q23.3097 18.5795 19.3466 18.5795Q15 18.5795 12.358 20.6357Q9.71591 22.6918 9.71591 25.8239Q9.71591 28.1676 11.1541 29.6058Q12.5923 31.044 14.5632 31.843Q16.5341 32.642 18.1534 33.0682L22.5852 34.2614Q24.2898 34.7088 26.3885 35.4972Q28.4872 36.2855 30.4155 37.6385Q32.3437 38.9915 33.6009 41.1009Q34.858 43.2102 34.858 46.2784Q34.858 49.8153 33.0149 52.6705Q31.1719 55.5256 27.6456 57.2088Q24.1193 58.892 19.0909 58.892Q12.0597 58.892 7.92614 55.5682Q3.79261 52.2443 3.40909 46.875L8.86364 46.875Q9.0767 49.3466 10.5362 50.9553Q11.9957 52.5639 14.2436 53.3416Q16.4915 54.1193 19.0909 54.1193Q22.1165 54.1193 24.5241 53.1286Q26.9318 52.1378 28.3381 50.3587Q29.7443 48.5795 29.7443 46.1932Q29.7443 44.0199 28.5298 42.6563Q27.3153 41.2926 25.3338 40.4403Q23.3523 39.5881 21.0511 38.9489L15.6818 37.4148Q10.5682 35.9446 7.58523 33.2173Q4.60227 30.4901 4.60227 26.0795Q4.60227 22.4148 6.59446 19.6768Q8.58665 16.9389 11.9638 15.4155Q15.3409 13.892 19.517 13.892Q23.7358 13.892 27.017 15.3942Q30.2983 16.8963 32.2266 19.4957Q34.1548 22.0952 34.2614 25.3977L29.1477 25.3977ZM57.1023 25.3977L57.1023 29.6591L50.1136 29.6591L50.1136 48.75Q50.1136 50.8807 50.7422 51.9354Q51.3707 52.9901 52.3615 53.3416Q53.3523 53.6932 54.4602 53.6932Q55.2912 53.6932 55.8239 53.5973Q56.3565 53.5014 56.6761 53.4375L57.6989 57.9545Q57.1875 58.1463 56.2713 58.3487Q55.3551 58.5511 53.9489 58.5511Q51.8182 58.5511 49.7834 57.6349Q47.7486 56.7188 46.4169 54.8438Q45.0852 52.9688 45.0852 50.1136L45.0852 29.6591L40.142 29.6591L40.142 25.3977L45.0852 25.3977L45.0852 17.5568L50.1136 17.5568L50.1136 25.3977L57.1023 25.3977ZM64.6875 58.125L64.6875 25.3977L69.5455 25.3977L69.5455 30.3409L69.8864 30.3409Q70.7813 27.9119 73.125 26.3991Q75.4688 24.8864 78.4091 24.8864Q78.9631 24.8864 79.794 24.9077Q80.625 24.929 81.0511 24.9716L81.0511 30.0852Q80.7955 30.0213 79.8899 29.8828Q78.9844 29.7443 77.983 29.7443Q74.4034 29.7443 72.0597 31.9176Q69.7159 34.0909 69.7159 37.4148L69.7159 58.125L64.6875 58.125ZM87.017 58.125L87.017 25.3977L92.0455 25.3977L92.0455 58.125L87.017 58.125ZM89.5739 19.9432Q88.1037 19.9432 87.049 18.9418Q85.9943 17.9403 85.9943 16.5341Q85.9943 15.1278 87.049 14.1264Q88.1037 13.125 89.5739 13.125Q91.044 13.125 92.0987 14.1264Q93.1534 15.1278 93.1534 16.5341Q93.1534 17.9403 92.0987 18.9418Q91.044 19.9432 89.5739 19.9432ZM106.278 38.4375L106.278 58.125L101.25 58.125L101.25 25.3977L106.108 25.3977L106.108 30.5114L106.534 30.5114Q107.685 28.0185 110.028 26.495Q112.372 24.9716 116.08 24.9716Q121.044 24.9716 124.102 28.0185Q127.159 31.0653 127.159 37.3295L127.159 58.125L122.131 58.125L122.131 37.6705Q122.131 33.8139 120.128 31.6513Q118.125 29.4886 114.631 29.4886Q111.03 29.4886 108.654 31.8217Q106.278 34.1548 106.278 38.4375ZM149.574 71.0795Q144.098 71.0795 140.913 69.0874Q137.727 67.0952 136.193 64.517L140.199 61.7045Q140.881 62.5994 141.925 63.7607Q142.969 64.9219 144.79 65.7848Q146.612 66.6477 149.574 66.6477Q153.537 66.6477 156.115 64.7301Q158.693 62.8125 158.693 58.7216L158.693 52.0739L158.267 52.0739Q157.713 52.9688 156.701 54.2791Q155.689 55.5895 153.803 56.6016Q151.918 57.6136 148.722 57.6136Q144.759 57.6136 141.616 55.7386Q138.473 53.8636 136.651 50.2841Q134.83 46.7045 134.83 41.5909Q134.83 36.5625 136.598 32.8232Q138.366 29.0838 141.52 27.0277Q144.673 24.9716 148.807 24.9716Q152.003 24.9716 153.889 26.0263Q155.774 27.081 156.786 28.4126Q157.798 29.7443 158.352 30.5966L158.864 30.5966L158.864 25.3977L163.722 25.3977L163.722 59.0625Q163.722 63.2813 161.815 65.934Q159.908 68.5866 156.701 69.8331Q153.494 71.0795 149.574 71.0795ZM149.403 53.0966Q153.942 53.0966 156.36 50.0178Q158.778 46.9389 158.778 41.5057Q158.778 36.2003 156.392 32.8445Q154.006 29.4886 149.403 29.4886Q146.207 29.4886 144.087 31.108Q141.967 32.7273 140.913 35.4545Q139.858 38.1818 139.858 41.5057Q139.858 46.6193 142.266 49.858Q144.673 53.0966 149.403 53.0966Z" />
      </g>
    </g>
    <g id="Character" transform="translate(34 233)">
      <g id="Character" fill="#FFFFFF">
        <path d="M40.3977 28.125L35.1136 28.125Q34.4744 25.0994 32.6634 23.0327Q30.8523 20.9659 28.2955 19.9006Q25.7386 18.8352 22.8409 18.8352Q18.8778 18.8352 15.6712 20.8381Q12.4645 22.8409 10.5788 26.7401Q8.69318 30.6392 8.69318 36.3068Q8.69318 41.9744 10.5788 45.8736Q12.4645 49.7727 15.6712 51.7756Q18.8778 53.7784 22.8409 53.7784Q25.7386 53.7784 28.2955 52.7131Q30.8523 51.6477 32.6634 49.581Q34.4744 47.5142 35.1136 44.4886L40.3977 44.4886Q39.5881 48.9631 37.0952 52.1484Q34.6023 55.3338 30.9162 57.0277Q27.2301 58.7216 22.8409 58.7216Q17.2585 58.7216 12.9119 55.9943Q8.56534 53.267 6.07244 48.2386Q3.57955 43.2102 3.57955 36.3068Q3.57955 29.4034 6.07244 24.375Q8.56534 19.3466 12.9119 16.6193Q17.2585 13.892 22.8409 13.892Q27.2301 13.892 30.9162 15.5859Q34.6023 17.2798 37.0952 20.4652Q39.5881 23.6506 40.3977 28.125ZM53.267 38.4375L53.267 58.125L48.2386 58.125L48.2386 14.4886L53.267 14.4886L53.267 30.5114L53.6932 30.5114Q54.8438 27.9759 57.1555 26.4737Q59.4673 24.9716 63.3239 24.9716Q68.3523 24.9716 71.4205 27.9972Q74.4886 31.0227 74.4886 37.3295L74.4886 58.125L69.4602 58.125L69.4602 37.6705Q69.4602 33.7713 67.4467 31.63Q65.4332 29.4886 61.875 29.4886Q58.1463 29.4886 55.7067 31.8217Q53.267 34.1548 53.267 38.4375ZM93.3239 58.892Q90.2131 58.892 87.6776 57.7095Q85.142 56.527 83.6506 54.2791Q82.1591 52.0313 82.1591 48.8352Q82.1591 46.0227 83.2671 44.2649Q84.375 42.5071 86.2287 41.5057Q88.0824 40.5043 90.3303 40.0036Q92.5781 39.5028 94.858 39.2045Q97.8409 38.821 99.7053 38.6186Q101.57 38.4162 102.433 37.9261Q103.295 37.4361 103.295 36.2216L103.295 36.0511Q103.295 32.8977 101.58 31.1506Q99.8651 29.4034 96.392 29.4034Q92.7912 29.4034 90.7457 30.9801Q88.7003 32.5568 87.8693 34.3466L83.0966 32.642Q84.375 29.6591 86.5163 27.9865Q88.6577 26.3139 91.2038 25.6428Q93.75 24.9716 96.2216 24.9716Q97.7983 24.9716 99.8544 25.3445Q101.911 25.7173 103.839 26.8679Q105.767 28.0185 107.045 30.3409Q108.324 32.6634 108.324 36.5625L108.324 58.125L103.295 58.125L103.295 53.6932L103.04 53.6932Q102.528 54.7585 101.335 55.973Q100.142 57.1875 98.1605 58.0398Q96.179 58.892 93.3239 58.892ZM94.0909 54.375Q97.0739 54.375 99.13 53.2031Q101.186 52.0313 102.241 50.1776Q103.295 48.3239 103.295 46.2784L103.295 41.6761Q102.976 42.0597 101.9 42.3686Q100.824 42.6776 99.4283 42.9013Q98.0327 43.125 96.7223 43.2848Q95.4119 43.4446 94.6023 43.5511Q92.642 43.8068 90.9482 44.3714Q89.2543 44.9361 88.2209 46.0547Q87.1875 47.1733 87.1875 49.0909Q87.1875 51.7116 89.1371 53.0433Q91.0867 54.375 94.0909 54.375ZM117.528 58.125L117.528 25.3977L122.386 25.3977L122.386 30.3409L122.727 30.3409Q123.622 27.9119 125.966 26.3991Q128.31 24.8864 131.25 24.8864Q131.804 24.8864 132.635 24.9077Q133.466 24.929 133.892 24.9716L133.892 30.0852Q133.636 30.0213 132.731 29.8828Q131.825 29.7443 130.824 29.7443Q127.244 29.7443 124.901 31.9176Q122.557 34.0909 122.557 37.4148L122.557 58.125L117.528 58.125ZM149.489 58.892Q146.378 58.892 143.842 57.7095Q141.307 56.527 139.815 54.2791Q138.324 52.0313 138.324 48.8352Q138.324 46.0227 139.432 44.2649Q140.54 42.5071 142.393 41.5057Q144.247 40.5043 146.495 40.0036Q148.743 39.5028 151.023 39.2045Q154.006 38.821 155.87 38.6186Q157.734 38.4162 158.597 37.9261Q159.46 37.4361 159.46 36.2216L159.46 36.0511Q159.46 32.8977 157.745 31.1506Q156.03 29.4034 152.557 29.4034Q148.956 29.4034 146.911 30.9801Q144.865 32.5568 144.034 34.3466L139.261 32.642Q140.54 29.6591 142.681 27.9865Q144.822 26.3139 147.369 25.6428Q149.915 24.9716 152.386 24.9716Q153.963 24.9716 156.019 25.3445Q158.075 25.7173 160.004 26.8679Q161.932 28.0185 163.21 30.3409Q164.489 32.6634 164.489 36.5625L164.489 58.125L159.46 58.125L159.46 53.6932L159.205 53.6932Q158.693 54.7585 157.5 55.973Q156.307 57.1875 154.325 58.0398Q152.344 58.892 149.489 58.892ZM150.256 54.375Q153.239 54.375 155.295 53.2031Q157.351 52.0313 158.406 50.1776Q159.46 48.3239 159.46 46.2784L159.46 41.6761Q159.141 42.0597 158.065 42.3686Q156.989 42.6776 155.593 42.9013Q154.197 43.125 152.887 43.2848Q151.577 43.4446 150.767 43.5511Q148.807 43.8068 147.113 44.3714Q145.419 44.9361 144.386 46.0547Q143.352 47.1733 143.352 49.0909Q143.352 51.7116 145.302 53.0433Q147.251 54.375 150.256 54.375ZM186.989 58.8068Q182.386 58.8068 179.063 56.6335Q175.739 54.4602 173.949 50.6463Q172.159 46.8324 172.159 41.9318Q172.159 36.946 174.002 33.1214Q175.845 29.2969 179.158 27.1342Q182.472 24.9716 186.903 24.9716Q190.355 24.9716 193.125 26.25Q195.895 27.5284 197.663 29.8295Q199.432 32.1307 199.858 35.1989L194.83 35.1989Q194.254 32.9616 192.283 31.2251Q190.313 29.4886 186.989 29.4886Q182.578 29.4886 179.883 32.8445Q177.188 36.2003 177.188 41.7614Q177.188 47.4503 179.851 50.87Q182.514 54.2898 186.989 54.2898Q189.929 54.2898 192.028 52.777Q194.126 51.2642 194.83 48.5795L199.858 48.5795Q199.432 51.4773 197.759 53.7891Q196.087 56.1009 193.349 57.4538Q190.611 58.8068 186.989 58.8068ZM221.42 25.3977L221.42 29.6591L214.432 29.6591L214.432 48.75Q214.432 50.8807 215.06 51.9354Q215.689 52.9901 216.68 53.3416Q217.67 53.6932 218.778 53.6932Q219.609 53.6932 220.142 53.5973Q220.675 53.5014 220.994 53.4375L222.017 57.9545Q221.506 58.1463 220.589 58.3487Q219.673 58.5511 218.267 58.5511Q216.136 58.5511 214.102 57.6349Q212.067 56.7188 210.735 54.8438Q209.403 52.9688 209.403 50.1136L209.403 29.6591L204.46 29.6591L204.46 25.3977L209.403 25.3977L209.403 17.5568L214.432 17.5568L214.432 25.3977L221.42 25.3977ZM242.386 58.8068Q237.656 58.8068 234.237 56.7081Q230.817 54.6094 228.974 50.8274Q227.131 47.0455 227.131 42.017Q227.131 36.9886 228.974 33.1428Q230.817 29.2969 234.13 27.1342Q237.443 24.9716 241.875 24.9716Q244.432 24.9716 246.925 25.8239Q249.418 26.6761 251.463 28.5831Q253.509 30.4901 254.723 33.6222Q255.938 36.7543 255.938 41.3352L255.938 43.4659L232.18 43.4659Q232.351 48.7074 235.153 51.4986Q237.955 54.2898 242.386 54.2898Q245.348 54.2898 247.479 53.0114Q249.609 51.733 250.568 49.1761L255.426 50.5398Q254.276 54.2472 250.824 56.527Q247.372 58.8068 242.386 58.8068ZM232.18 39.1193L250.824 39.1193Q250.824 34.9645 248.395 32.2266Q245.966 29.4886 241.875 29.4886Q238.999 29.4886 236.889 30.831Q234.78 32.1733 233.565 34.3786Q232.351 36.5838 232.18 39.1193ZM263.608 58.125L263.608 25.3977L268.466 25.3977L268.466 30.3409L268.807 30.3409Q269.702 27.9119 272.045 26.3991Q274.389 24.8864 277.33 24.8864Q277.884 24.8864 278.714 24.9077Q279.545 24.929 279.972 24.9716L279.972 30.0852Q279.716 30.0213 278.81 29.8828Q277.905 29.7443 276.903 29.7443Q273.324 29.7443 270.98 31.9176Q268.636 34.0909 268.636 37.4148L268.636 58.125L263.608 58.125Z" />
      </g>
    </g>
    <path d="M258 68L258 101" id="Line" fill="none" fill-rule="evenodd" stroke="#FF7E8A" stroke-width="4" stroke-linecap="square" />
    <path d="M161 200L161 243" id="Line-2" fill="none" fill-rule="evenodd" stroke="#FFFFFF" stroke-width="4" stroke-linecap="square" />
  </g>
</svg>